<?xml version="1.0" encoding="utf-8"?>
<!-- Generator: Adobe Illustrator 21.1.0, SVG Export Plug-In . SVG Version: 6.00 Build 0)  -->
<svg version="1.1" id="Layer_1" xmlns="http://www.w3.org/2000/svg" xmlns:xlink="http://www.w3.org/1999/xlink" x="0px" y="0px"
	 viewBox="0 0 4889.4 3571.8" style="enable-background:new 0 0 4889.4 3571.8;" xml:space="preserve">
<style type="text/css">
	.st0{fill:#FFC22A;}
</style>
<g>
	<g>
		<path d="M1731.9,269.5h-244.6c-17.7-28.2-51.3-46.1-99.4-46.1c-89.9,0-140,63.8-140,162c0,115.1,52.3,172.4,166.2,172.4
			c52.3,0,95.2-18.9,129.5-64.8h-184.9V328.9h377.4v232c-51.3,88.9-155.7,200.7-347,200.7c-233.2,0-376.3-155.7-376.3-376.3
			S1155.1,9.1,1387.1,9.1C1583.5,9.4,1710,111.8,1731.9,269.5z"/>
		<path d="M1819.7,16.6h232v739.9h-232V16.6L1819.7,16.6z"/>
		<path d="M2654.8,16.6h246.6l-248.7,740h-300L2104,16.6h246.6l152.7,509L2654.8,16.6z"/>
		<path d="M3447.1,201.8h-261.4v90.9h230v174.7h-230V572h261.4v185h-493.3V16.6h493.3V201.8z"/>
		<path d="M3712.5,16.6h232v739.9h-232V16.6L3712.5,16.6z"/>
		<path d="M4007.2,16.6h622.9v183.9h-196.5v556.1h-232V200.7h-194.4L4007.2,16.6L4007.2,16.6z"/>
		<path d="M1042.3,1081.8h240v433.4c0,66.3,26.1,115.2,98.9,115.2s102-48.9,102-115.2v-433.4h240v433.4
			c0,227-155.3,343.3-347.7,343.3S1042,1742.3,1042,1515.2v-433.4L1042.3,1081.8L1042.3,1081.8z"/>
		<path d="M2164.1,1606.4h-95.5v244.4h-241.1v-768.9h336.8c193.4,0,292.3,108.7,292.3,264C2456.4,1488,2357.5,1606.4,2164.1,1606.4z
			 M2136.9,1416.3c54.3,0,74.9-28.2,74.9-70.7s-20.7-70.7-74.9-70.7h-68.4V1416h68.4V1416.3z"/>
		<path d="M3059.1,1731.4h-339.9v-201.1l323.6-461.6h259.6v454.1h78.2v208.6h-78.2V1851h-243.3L3059.1,1731.4L3059.1,1731.4z
			 M3078.8,1522.7v-179.2l-117.3,179.2H3078.8z"/>
		<path d="M1383.2,2671.3h-95.5v244.4h-241.2v-768.9h336.8c193.4,0,292.3,108.7,292.3,263.9
			C1675.5,2552.9,1576.6,2671.3,1383.2,2671.3z M1356.1,2481.2c54.3,0,74.9-28.2,74.9-70.7c0-42.4-20.7-70.7-74.9-70.7h-68.4V2481
			h68.4V2481.2z"/>
		<path d="M2264,2338.9h-271.6v94.5h239v181.5h-239v108.7H2264v192.3h-512.6V2147H2264V2338.9z"/>
		<path d="M2848.4,2799.4h-256.3l-38,116.2h-253.2l281.4-768.9h278.1l280.2,768.9h-254.2L2848.4,2799.4z M2720.2,2404.1l-69.6,213.9
			h139L2720.2,2404.1z"/>
		<path d="M3553.3,2139c203.2,0,341,121.7,372.6,303.1h-254.2c-22.8-51-68.4-80.3-122.7-80.3c-81.5,0-131.5,66.3-131.5,168.3
			s50,168.3,131.5,168.3c54.3,0,99.9-29.3,122.7-80.3h254.2c-31.6,181.5-169.5,303.1-372.6,303.1c-235.6,0-380.1-161.8-380.1-391
			C3173.3,2301.2,3317.5,2139,3553.3,2139z"/>
		<path d="M4525.3,2338.9h-271.6v94.5h239v181.5h-239v108.7h271.6v192.3h-512.6V2147h512.6V2338.9L4525.3,2338.9z"/>
	</g>
	<g>
		<path class="st0" d="M500.6,573.1H311.7l-37.5,168.3H137.1l37.5-168.3h-157V449.5h185L236.8,297H81.1V173.5h183.7L301.3,9.2h137.1
			l-36.5,164.2h188.9L627.3,9.2h138.1l-36.5,164.2h132.9V297H700.9l-34.2,152.5h131.9v123.6H638.7l-37.5,168.3H463.1L500.6,573.1z
			 M562.8,297H373.9l-34.2,152.5h188.9L562.8,297z"/>
	</g>
</g>
<g>
	<g>
		<path d="M2621,3248.7h18.4v102.1h0.6c3-4.5,6.5-8.3,10.6-11.4c4.1-3.2,8.4-5.8,12.8-7.8c4.5-2.1,9.1-3.5,13.8-4.5
			c4.7-0.9,9.2-1.4,13.5-1.4c10.2,0,19.6,1.7,28,5.2c8.5,3.4,15.7,8.2,21.9,14.4c6.1,6.1,10.9,13.4,14.4,21.8
			c3.4,8.4,5.2,17.5,5.2,27.3s-1.7,18.9-5.2,27.3c-3.4,8.4-8.2,15.6-14.4,21.7c-6.1,6.1-13.4,10.9-21.9,14.4
			c-8.5,3.4-17.8,5.2-28,5.2c-4.3,0-8.8-0.5-13.5-1.4s-9.3-2.4-13.8-4.5c-4.5-2-8.7-4.6-12.8-7.8s-7.6-7-10.6-11.4h-0.6v21.8H2621
			V3248.7z M2740.1,3394.2c0-7.3-1.2-14-3.5-20.4c-2.3-6.3-5.6-11.8-9.9-16.5c-4.3-4.6-9.4-8.3-15.5-11c-6-2.7-12.9-4-20.5-4
			s-14.6,1.3-20.9,4c-6.3,2.7-11.8,6.4-16.5,11s-8.3,10.1-10.9,16.5c-2.6,6.3-3.9,13.1-3.9,20.4c0,7.2,1.3,14,3.9,20.3
			c2.6,6.3,6.2,11.8,10.9,16.5c4.6,4.7,10.1,8.3,16.5,11c6.3,2.7,13.3,4,20.9,4c7.6,0,14.5-1.3,20.5-4s11.2-6.4,15.5-11
			s7.6-10.1,9.9-16.5C2738.9,3408.2,2740.1,3401.5,2740.1,3394.2z"/>
		<path d="M2839.9,3436.9l39.9-107.9h22.3l-65.2,164.5c-3.9,10-8.9,18-14.9,24c-6.1,5.9-14.7,8.9-26.1,8.9c-2.8,0-5.6-0.1-8.5-0.3
			s-5.7-0.8-8.5-1.7l2-17.8c3.9,2.1,8.6,3.1,13.9,3.1c6.5,0,11.6-2,15.3-6.1s7-9.9,9.8-17.3l9.5-25.1l-53.5-132.2h23.1
			L2839.9,3436.9z"/>
		<path d="M3010,3262h57.4c20.1,0,35.9,4.4,47.5,13.1c11.6,8.7,17.4,21.9,17.4,39.6c0,17.7-5.8,30.9-17.4,39.7
			c-11.6,8.8-27.5,13.2-47.5,13.2H3030v91.7h-20V3262z M3030.1,3349.3h32.3c8.9,0,16.5-0.9,22.7-2.8c6.2-1.9,11.2-4.3,14.9-7.4
			c3.7-3.1,6.4-6.7,8.1-10.9c1.7-4.2,2.5-8.7,2.5-13.5c0-4.6-0.8-9.1-2.5-13.2c-1.7-4.2-4.4-7.8-8.1-11c-3.7-3.2-8.7-5.6-14.9-7.4
			c-6.2-1.8-13.8-2.6-22.7-2.6h-32.3V3349.3z"/>
		<path d="M3176.2,3399.2c0.6,6.5,2.1,12.6,4.7,18.4c2.6,5.8,6,10.7,10.3,14.9s9.2,7.5,14.8,9.9s11.6,3.6,18.1,3.6
			c9.9,0,18.4-2.3,25.5-6.8c7.2-4.5,12.6-9.8,16.3-15.8l14.2,11.7c-7.8,9.9-16.4,16.9-25.8,21.2c-9.4,4.3-19.5,6.4-30.3,6.4
			c-9.7,0-18.6-1.7-26.9-5.2c-8.3-3.4-15.4-8.2-21.3-14.4c-6-6.1-10.7-13.4-14.1-21.7c-3.4-8.4-5.2-17.5-5.2-27.3s1.7-19,5-27.3
			c3.3-8.4,8-15.6,13.9-21.8c6-6.1,12.9-10.9,20.9-14.4c8-3.4,16.6-5.2,25.9-5.2c9.9,0,18.7,1.8,26.5,5.3s14.4,8.2,19.7,14.1
			c5.3,5.9,9.3,12.7,12.1,20.6c2.8,7.9,4.2,16.3,4.2,25.2v8.4h-108.5V3399.2z M3264.9,3384.2c0-12.5-3.7-22.5-11.1-30.3
			c-7.4-7.7-17.9-11.6-31.2-11.6c-6,0-11.7,1.2-17.3,3.5s-10.5,5.4-14.6,9.3c-4.2,3.9-7.5,8.4-10,13.4s-3.8,10.2-3.8,15.6h88V3384.2
			z"/>
		<path d="M3402.1,3379.4v-3.3c0-22.5-11.2-33.7-33.5-33.7c-15.2,0-28.5,5.1-39.9,15.3l-11.1-13.1c12.3-12.6,30.7-19,55.2-19
			c6.3,0,12.4,0.9,18.3,2.8c5.9,1.9,10.9,4.7,15.2,8.5s7.7,8.6,10.3,14.4c2.6,5.8,3.9,12.6,3.9,20.6v58.3c0,5,0.2,10.3,0.7,15.8
			s1,10,1.5,13.5h-17.8c-0.6-3.2-1-6.6-1.2-10.3c-0.3-3.7-0.4-7.3-0.4-10.9h-0.5c-5.4,8.7-11.8,15-19.1,18.8s-16.3,5.7-26.9,5.7
			c-5.8,0-11.3-0.8-16.7-2.4c-5.4-1.6-10.2-4-14.4-7.3s-7.5-7.2-10-12c-2.5-4.7-3.8-10.3-3.8-16.6c0-10.6,2.7-18.9,8.2-25
			c5.5-6,12.4-10.6,20.6-13.5c8.3-3,17.1-4.8,26.5-5.6s18-1.1,25.8-1.1h9.1V3379.4z M3392.6,3394.5c-4.6,0-10.5,0.2-17.4,0.7
			c-7,0.5-13.7,1.6-20.1,3.3c-6.4,1.8-11.9,4.5-16.5,8.2c-4.5,3.7-6.8,8.8-6.8,15.3c0,4.3,0.9,7.9,2.6,11c1.8,3.1,4.1,5.6,7.1,7.5
			c3,2,6.3,3.3,9.9,4.2c3.6,0.8,7.3,1.2,11,1.2c6.7,0,12.5-1.1,17.4-3.3s9.1-5.3,12.4-9.1c3.3-3.8,5.8-8.3,7.4-13.4
			c1.6-5.1,2.4-10.5,2.4-16.3v-9.5h-9.4V3394.5z"/>
		<path d="M3558.2,3359.6c-3.2-4.8-7.6-8.9-13.2-12.3c-5.7-3.3-12.1-5-19.4-5c-7.6-0.2-14.5,1-20.5,3.6s-11.2,6.2-15.5,10.9
			c-4.3,4.6-7.5,10.2-9.8,16.6c-2.2,6.4-3.3,13.3-3.3,20.8c0,7.4,1.1,14.4,3.3,20.8c2.2,6.4,5.5,11.9,9.8,16.6
			c4.3,4.6,9.4,8.3,15.5,10.9c6,2.6,12.9,3.8,20.5,3.6c7.2,0,13.7-1.7,19.4-5s10.1-7.4,13.2-12.3l15.1,11.4
			c-6.5,7.6-13.9,13.2-22,16.9c-8.2,3.6-16.7,5.5-25.6,5.7c-10.6,0.2-20.2-1.4-28.7-4.9c-8.6-3.4-15.9-8.2-21.9-14.4
			c-6-6.1-10.6-13.4-13.8-21.9s-4.7-17.6-4.7-27.5s1.6-19,4.7-27.5c3.2-8.5,7.8-15.8,13.8-21.9c6-6.1,13.3-10.9,21.9-14.4
			c8.5-3.4,18.1-5.1,28.7-4.9c8.9,0.2,17.5,2.1,25.6,5.7c8.2,3.6,15.5,9.2,22,16.9L3558.2,3359.6z"/>
		<path d="M3610.4,3399.2c0.6,6.5,2.1,12.6,4.7,18.4c2.6,5.8,6,10.7,10.3,14.9s9.2,7.5,14.8,9.9s11.6,3.6,18.1,3.6
			c9.9,0,18.4-2.3,25.5-6.8c7.2-4.5,12.6-9.8,16.3-15.8l14.2,11.7c-7.8,9.9-16.4,16.9-25.8,21.2c-9.4,4.3-19.5,6.4-30.3,6.4
			c-9.7,0-18.6-1.7-26.9-5.2c-8.3-3.4-15.4-8.2-21.3-14.4c-6-6.1-10.7-13.4-14.1-21.7c-3.4-8.4-5.2-17.5-5.2-27.3s1.7-19,5-27.3
			c3.3-8.4,8-15.6,13.9-21.8c6-6.1,12.9-10.9,20.9-14.4c8-3.4,16.6-5.2,25.9-5.2c9.9,0,18.7,1.8,26.5,5.3s14.4,8.2,19.7,14.1
			c5.3,5.9,9.3,12.7,12.1,20.6c2.8,7.9,4.2,16.3,4.2,25.2v8.4h-108.5V3399.2z M3699.1,3384.2c0-12.5-3.7-22.5-11.1-30.3
			c-7.4-7.7-17.9-11.6-31.2-11.6c-6,0-11.7,1.2-17.3,3.5s-10.5,5.4-14.6,9.3c-4.2,3.9-7.5,8.4-10,13.4s-3.8,10.2-3.8,15.6h88V3384.2
			z"/>
		<path d="M3905.1,3298.3c-6.7-7.1-14.7-12.6-24-16.7c-9.3-4.1-20.1-6.1-32.3-6.1c-12.6,0-24,2.3-34,7c-10,4.6-18.5,10.9-25.5,18.7
			s-12.3,16.9-16,27.2s-5.6,21.1-5.6,32.5s1.9,22.2,5.6,32.5c3.7,10.3,9.1,19.4,16,27.2c7,7.8,15.5,14,25.5,18.7c10,4.6,21.4,7,34,7
			c10.2,0,20-1.2,29.4-3.8c9.4-2.5,17.8-5.9,25.2-10.2V3366h-47.1v-18.4h67.2v96.8c-11.1,6.5-23.4,11.5-36.7,14.9s-26,5.2-38.1,5.2
			c-14.7,0-28.3-2.6-40.8-7.8s-23.4-12.4-32.6-21.6c-9.2-9.2-16.4-20.1-21.6-32.8c-5.2-12.6-7.8-26.5-7.8-41.5s2.6-28.9,7.8-41.6
			c5.2-12.6,12.4-23.6,21.6-32.8c9.2-9.2,20.1-16.4,32.6-21.6c12.5-5.2,26.2-7.8,40.8-7.8c15.8,0,29.4,2.2,40.8,6.6
			c11.4,4.4,21.6,11,30.5,19.9L3905.1,3298.3z"/>
		<path d="M3982.4,3399.2c0.6,6.5,2.1,12.6,4.7,18.4c2.6,5.8,6,10.7,10.3,14.9s9.2,7.5,14.8,9.9s11.6,3.6,18.1,3.6
			c9.9,0,18.4-2.3,25.5-6.8c7.2-4.5,12.6-9.8,16.3-15.8l14.2,11.7c-7.8,9.9-16.4,16.9-25.8,21.2c-9.4,4.3-19.5,6.4-30.3,6.4
			c-9.7,0-18.6-1.7-26.9-5.2c-8.3-3.4-15.4-8.2-21.3-14.4c-6-6.1-10.7-13.4-14.1-21.7c-3.4-8.4-5.2-17.5-5.2-27.3s1.7-19,5-27.3
			c3.3-8.4,8-15.6,13.9-21.8c6-6.1,12.9-10.9,20.9-14.4c8-3.4,16.6-5.2,25.9-5.2c9.9,0,18.7,1.8,26.5,5.3s14.4,8.2,19.7,14.1
			c5.3,5.9,9.3,12.7,12.1,20.6c2.8,7.9,4.2,16.3,4.2,25.2v8.4h-108.5V3399.2z M4071,3384.2c0-12.5-3.7-22.5-11.1-30.3
			c-7.4-7.7-17.9-11.6-31.2-11.6c-6,0-11.7,1.2-17.3,3.5s-10.5,5.4-14.6,9.3c-4.2,3.9-7.5,8.4-10,13.4s-3.8,10.2-3.8,15.6h88V3384.2
			z"/>
		<path d="M4137.4,3399.2c0.6,6.5,2.1,12.6,4.7,18.4c2.6,5.8,6,10.7,10.3,14.9s9.2,7.5,14.8,9.9c5.6,2.4,11.6,3.6,18.1,3.6
			c9.9,0,18.4-2.3,25.5-6.8c7.2-4.5,12.6-9.8,16.3-15.8l14.2,11.7c-7.8,9.9-16.4,16.9-25.8,21.2s-19.5,6.4-30.3,6.4
			c-9.7,0-18.6-1.7-26.9-5.2c-8.3-3.4-15.4-8.2-21.3-14.4c-6-6.1-10.7-13.4-14.1-21.7c-3.4-8.4-5.2-17.5-5.2-27.3s1.7-19,5-27.3
			c3.3-8.4,8-15.6,13.9-21.8c6-6.1,12.9-10.9,20.9-14.4c8-3.4,16.6-5.2,25.9-5.2c9.9,0,18.7,1.8,26.5,5.3s14.4,8.2,19.7,14.1
			s9.3,12.7,12.1,20.6c2.8,7.9,4.2,16.3,4.2,25.2v8.4h-108.5V3399.2z M4226.1,3384.2c0-12.5-3.7-22.5-11.1-30.3
			c-7.4-7.7-17.9-11.6-31.2-11.6c-6,0-11.7,1.2-17.3,3.5c-5.6,2.3-10.5,5.4-14.6,9.3c-4.2,3.9-7.5,8.4-10,13.4s-3.8,10.2-3.8,15.6
			h88V3384.2z"/>
		<path d="M4298,3387.8l61.6-58.8h27.6l-65,59.7l71.9,70.8h-28.4l-67.8-68.6v68.6h-18.4v-210.8h18.4L4298,3387.8L4298,3387.8z"/>
		<path d="M4483.2,3359.9c-2.8-5.4-6.5-9.7-11.2-12.8c-4.6-3.2-10.3-4.7-17-4.7c-3.2,0-6.4,0.4-9.6,1.1c-3.3,0.8-6.2,1.9-8.8,3.5
			c-2.6,1.6-4.7,3.6-6.3,6c-1.6,2.4-2.4,5.4-2.4,8.9c0,6.1,2.1,10.6,6.4,13.4c4.3,2.8,10.7,5.2,19.2,7.2l18.7,4.5
			c9.1,2.1,16.7,6.2,22.7,12.4s9.1,14,9.1,23.3c0,7.1-1.4,13.2-4.3,18.3s-6.7,9.3-11.4,12.6c-4.7,3.3-10.2,5.6-16.3,7.1
			c-6.1,1.5-12.4,2.2-18.7,2.2c-10,0-19.4-1.9-28-5.7s-16-10.4-22.2-19.7l15.9-10.9c3.7,5.9,8.4,10.7,14.1,14.2s12.4,5.3,20.2,5.3
			c3.7,0,7.4-0.4,11.1-1.2s7-2.1,9.9-3.9c2.9-1.8,5.2-4,7-6.8s2.7-6,2.7-9.8c0-6.5-2.4-11.2-7.3-14.1c-4.8-2.9-10.7-5.2-17.6-6.8
			l-17.8-4.2c-2.2-0.6-5.3-1.5-9.1-2.8c-3.8-1.3-7.5-3.3-11.2-5.9c-3.6-2.6-6.7-6-9.3-10.2c-2.6-4.2-3.9-9.3-3.9-15.5
			c0-6.7,1.3-12.6,4.1-17.6c2.7-5,6.3-9.1,10.9-12.3c4.5-3.2,9.7-5.5,15.5-7.1s11.7-2.4,17.8-2.4c9.1,0,17.6,1.8,25.4,5.3
			s13.9,9.6,18.1,18.1L4483.2,3359.9z"/>
	</g>
	<g>
		<g>
			<g>
				<path d="M2235.1,3303.3c5.6-16.6-6-37-25.5-45.4C2209.2,3273.9,2217.9,3289,2235.1,3303.3L2235.1,3303.3z"/>
				<path d="M2276.5,3291.9c-4.6-14-15.6-32.7-31.4-43.3c2.4,38.1,4.6,76.2,30.1,112C2271.7,3343,2281.1,3305.9,2276.5,3291.9
					L2276.5,3291.9z"/>
				<path d="M2268.8,3376.3c-7.5-26.3-45.4-87.8-82.4-81.7c26.8,26.1,30.3,67,73,81C2263,3376.8,2266.1,3376.7,2268.8,3376.3
					L2268.8,3376.3z"/>
				<path d="M2292.8,3403.1c-20.3-20.1-57.1-35.8-79.1-5.7c29.2,18.2,57.4,18.4,84.6,16C2297.8,3411.4,2296.8,3407.1,2292.8,3403.1
					L2292.8,3403.1z"/>
				<path d="M2316.6,3352.8c-8.9-17.6-12.7-31.9-33.1-57.8c0.4,41.5-10.4,83.7,33.4,120.9
					C2315.3,3395.1,2325.5,3370.4,2316.6,3352.8L2316.6,3352.8z"/>
				<path d="M2322.6,3434.6c-21.8-18.3-50.9-18.4-73.1,16.7C2276.2,3469.5,2300.2,3460.8,2322.6,3434.6L2322.6,3434.6z"/>
				<path d="M2339.3,3445.6c-30.6-5.6-39.7,40-30.7,58.5c26.7,0.4,49.4-17,49.4-39.7c0-6.9-4.6-11.5-7.7-13.7
					C2347.7,3449,2344.8,3446.7,2339.3,3445.6L2339.3,3445.6z"/>
				<path d="M2413.5,3411.9c-16.4,21.8-31.7,22.7-31.7,57.1c37.1-2.8,44.4-19.4,37.5-46.9
					C2417.7,3415.3,2413.6,3411.9,2413.5,3411.9L2413.5,3411.9z"/>
				<path d="M2366.3,3478.8c-16.7,11.5-17.7,48.8,4.6,66.6c3.4-4.2,7-7.8,9-11c2.1-3.2,2.5-4.4,3.9-8.3c1.4-4,4.9-24.8,0.8-35.7
					c-3.4-9-5.6-11.4-9.7-15.2C2375,3475.2,2370.4,3476,2366.3,3478.8L2366.3,3478.8z"/>
				<path d="M2312.6,3332.2c0,0,15,17.6,14,39.4c-1,21.9-1.8,36.8,9,59.8c16-21.4,23-35.8,21.2-44.9
					C2355,3377.4,2345.8,3348.8,2312.6,3332.2L2312.6,3332.2z"/>
				<path d="M2393.9,3414.9c0.1-16.8-5.8-19.4-19.2-43.9c-10.2,40.2-36.2,40.1-9.5,84.4C2374.3,3440,2393.8,3433.9,2393.9,3414.9
					L2393.9,3414.9z"/>
				<path d="M2394.4,3482.3c37.5,7,83.4,51.7,124.8,20.9c2.2-5-0.8-14.9-3.7-11.3c-16.6,20.8-66.6,13.4-114.5-16.9
					C2396.1,3471.8,2386.1,3480.1,2394.4,3482.3L2394.4,3482.3z"/>
			</g>
		</g>
	</g>
</g>
</svg>
